<svg width="271" height="279" viewBox="0 0 271 279" fill="none" xmlns="http://www.w3.org/2000/svg">
<g clip-path="url(#clip0)">
<path d="M129.943 263.204H84.9873V278.129H129.943V263.204Z" fill="#F7934B"/>
<path d="M194.257 263.204H149.301V278.129H194.257V263.204Z" fill="#F7934B"/>
<path d="M114.109 249.938H100.864V263.204H114.109V249.938Z" fill="#F7934B"/>
<path d="M178.422 249.938H165.178V263.204H178.422V249.938Z" fill="#F7934B"/>
<path d="M240.146 116.38C240.146 116.38 292.573 166.597 260.31 178.29C228.047 189.941 240.146 116.38 240.146 116.38Z" fill="#FABD47"/>
<path d="M124.212 54.7244C124.212 54.7244 84.6055 24.407 92.374 8.03645C100.143 -8.33409 126.547 4.93242 140.514 16.5831C154.48 28.2339 160.89 -4.03948 178.253 0.42521C195.615 4.8899 157.919 54.7244 157.919 54.7244H124.212Z" fill="#3A3A3A"/>
<path d="M202.704 249.938H71.4448C50.7711 249.938 34.0029 233.142 34.0029 212.434V78.451C34.0029 57.7433 50.7711 40.9476 71.4448 40.9476H202.704C223.377 40.9476 240.146 57.7433 240.146 78.451V212.434C240.146 233.142 223.377 249.938 202.704 249.938Z" fill="#F7F9F8"/>
<path fill-rule="evenodd" clip-rule="evenodd" d="M71.4448 45.1997C53.1156 45.1997 38.248 60.0917 38.248 78.451V212.434C38.248 230.794 53.1156 245.686 71.4448 245.686H202.704C221.033 245.686 235.901 230.794 235.901 212.434V78.451C235.901 60.0917 221.033 45.1997 202.704 45.1997H71.4448ZM29.7578 78.451C29.7578 55.395 48.4266 36.6955 71.4448 36.6955H202.704C225.722 36.6955 244.391 55.395 244.391 78.451V212.434C244.391 235.49 225.722 254.19 202.704 254.19H71.4448C48.4266 254.19 29.7578 235.49 29.7578 212.434V78.451Z" fill="#F8BD48"/>
<path fill-rule="evenodd" clip-rule="evenodd" d="M236.669 82.9432C236.668 82.9442 236.667 82.9455 240.146 85.3819C243.626 87.8183 243.624 87.8203 243.623 87.8226L243.618 87.829L243.605 87.8477C243.594 87.8629 243.58 87.8834 243.562 87.9092C243.525 87.9608 243.473 88.0335 243.406 88.1266C243.272 88.3129 243.076 88.5811 242.818 88.9264C242.303 89.617 241.541 90.616 240.527 91.8845C238.498 94.4215 235.462 98.0378 231.382 102.422C223.225 111.19 210.89 123.039 194.101 135.473C160.509 160.351 109.098 187.562 37.7083 197.132L36.582 188.703C106.343 179.351 156.432 152.794 189.053 128.635C205.37 116.551 217.32 105.063 225.171 96.6246C229.096 92.4059 231.994 88.9514 233.9 86.5684C234.852 85.377 235.557 84.4537 236.016 83.837C236.246 83.5286 236.415 83.297 236.524 83.1468C236.578 83.0717 236.617 83.017 236.641 82.9832L236.665 82.9484L236.669 82.9432Z" fill="#FABD47"/>
<path d="M101.415 215.623H68.5583C64.8226 215.623 61.8086 212.604 61.8086 208.863V166.129C61.8086 162.387 64.8226 159.368 68.5583 159.368H101.415C105.151 159.368 108.165 162.387 108.165 166.129V208.82C108.208 212.562 105.151 215.623 101.415 215.623Z" fill="#FABD47"/>
<path d="M32.9845 121.822C32.9845 121.822 -21.8199 169.446 9.84864 182.67C41.5172 195.894 32.9845 121.822 32.9845 121.822Z" fill="#FABD47"/>
</g>
<path d="M103.803 93.8436C106.456 93.8751 108.652 90.0708 108.708 85.3464C108.765 80.622 106.659 76.7665 104.007 76.735C101.354 76.7035 99.1576 80.5079 99.1015 85.2323C99.0454 89.9567 101.151 93.8121 103.803 93.8436Z" fill="#020202"/>
<path d="M164.993 94.57C167.646 94.6016 169.842 90.7972 169.898 86.0728C169.954 81.3484 167.849 77.493 165.196 77.4615C162.543 77.43 160.347 81.2343 160.291 85.9587C160.235 90.6831 162.34 94.5385 164.993 94.57Z" fill="#020202"/>
<path d="M118.723 102.014C118.723 102.014 135.855 88.0884 151.699 102.406L118.723 102.014Z" fill="#FABD47"/>
<path d="M118.723 102.014C118.723 102.014 135.519 116.343 151.698 102.406L118.723 102.014Z" fill="#FABD47"/>
<path fill-rule="evenodd" clip-rule="evenodd" d="M94.1025 77.1248C94.103 77.124 94.1035 77.1231 92.2341 76.1142C90.3648 75.1054 90.3653 75.1044 90.3659 75.1033L90.3672 75.101L90.3701 75.0955L90.378 75.081C90.3842 75.0699 90.392 75.0557 90.4015 75.0386C90.4206 75.0045 90.4466 74.9588 90.4794 74.9025C90.5449 74.79 90.638 74.635 90.7586 74.4455C90.9994 74.0673 91.352 73.5484 91.8161 72.9556C92.7377 71.7784 94.134 70.2648 96.0079 68.9952C97.8918 67.7188 100.289 66.6697 103.168 66.4966C106.058 66.3228 109.275 67.0417 112.768 69.0526L110.654 72.7381C107.782 71.0841 105.381 70.623 103.426 70.7405C101.46 70.8588 99.7831 71.5726 98.389 72.5171C96.9851 73.4684 95.8992 74.6339 95.1581 75.5805C94.7908 76.0496 94.517 76.4537 94.3391 76.7331C94.2504 76.8725 94.1862 76.9799 94.1467 77.0477C94.1269 77.0815 94.1135 77.1054 94.1062 77.1183L94.1001 77.1293L94.1006 77.1284L94.1018 77.1263L94.1025 77.1248Z" fill="#020202"/>
<path fill-rule="evenodd" clip-rule="evenodd" d="M157.993 71.7165C157.994 71.716 157.995 71.7154 156.88 69.9071C155.766 68.0987 155.767 68.0981 155.768 68.0975L155.77 68.0961L155.776 68.0928L155.79 68.0842C155.801 68.0776 155.814 68.0693 155.831 68.0593C155.865 68.0393 155.91 68.0126 155.967 67.9803C156.08 67.9157 156.238 67.8279 156.437 67.7242C156.835 67.517 157.399 67.2439 158.098 66.9626C159.484 66.4039 161.45 65.7913 163.708 65.6287C165.978 65.4652 168.578 65.7552 171.158 67.0449C173.748 68.3396 176.175 70.5707 178.194 74.0586L174.521 76.1934C172.86 73.3246 171.012 71.725 169.26 70.8492C167.498 69.9684 165.689 69.7484 164.009 69.8693C162.318 69.9912 160.795 70.4576 159.68 70.9068C159.127 71.1295 158.688 71.3425 158.394 71.4956C158.247 71.5719 158.138 71.6328 158.07 71.6717C158.036 71.6912 158.012 71.7051 158 71.7127L157.989 71.7191L157.99 71.7186L157.992 71.7174L157.993 71.7165Z" fill="#020202"/>
<defs>
<clipPath id="clip0">
<rect width="270.796" height="278.087" fill="white"/>
</clipPath>
</defs>
</svg>
