<svg width="271" height="279" viewBox="0 0 271 279" fill="none" xmlns="http://www.w3.org/2000/svg">
<g clip-path="url(#clip0)">
<path d="M129.943 263.204H84.9873V278.129H129.943V263.204Z" fill="#F7934B"/>
<path d="M194.257 263.204H149.301V278.129H194.257V263.204Z" fill="#F7934B"/>
<path d="M114.109 249.938H100.864V263.204H114.109V249.938Z" fill="#F7934B"/>
<path d="M178.422 249.938H165.178V263.204H178.422V249.938Z" fill="#F7934B"/>
<path d="M240.146 116.38C240.146 116.38 292.573 166.597 260.31 178.29C228.047 189.941 240.146 116.38 240.146 116.38Z" fill="#FABD47"/>
<path d="M124.212 54.7244C124.212 54.7244 84.6055 24.407 92.374 8.03644C100.143 -8.3341 126.547 4.93242 140.514 16.5831C154.48 28.2339 160.89 -4.03949 178.253 0.425204C195.615 4.88989 157.919 54.7244 157.919 54.7244H124.212Z" fill="#3A3A3A"/>
<path d="M202.704 249.938H71.4448C50.7711 249.938 34.0029 233.142 34.0029 212.434V78.451C34.0029 57.7433 50.7711 40.9476 71.4448 40.9476H202.704C223.377 40.9476 240.146 57.7433 240.146 78.451V212.434C240.146 233.142 223.377 249.938 202.704 249.938Z" fill="#F7F9F8"/>
<path fill-rule="evenodd" clip-rule="evenodd" d="M71.4448 45.1997C53.1156 45.1997 38.248 60.0917 38.248 78.451V212.434C38.248 230.794 53.1156 245.686 71.4448 245.686H202.704C221.033 245.686 235.901 230.794 235.901 212.434V78.451C235.901 60.0917 221.033 45.1997 202.704 45.1997H71.4448ZM29.7578 78.451C29.7578 55.395 48.4266 36.6955 71.4448 36.6955H202.704C225.722 36.6955 244.391 55.395 244.391 78.451V212.434C244.391 235.49 225.722 254.19 202.704 254.19H71.4448C48.4266 254.19 29.7578 235.49 29.7578 212.434V78.451Z" fill="#F8BD48"/>
<path fill-rule="evenodd" clip-rule="evenodd" d="M236.669 82.9432C236.668 82.9442 236.667 82.9455 240.146 85.3819C243.626 87.8183 243.624 87.8203 243.623 87.8226L243.618 87.829L243.605 87.8477C243.594 87.8629 243.58 87.8834 243.562 87.9092C243.525 87.9608 243.473 88.0335 243.406 88.1266C243.272 88.3129 243.076 88.5811 242.818 88.9264C242.303 89.617 241.541 90.616 240.527 91.8845C238.498 94.4215 235.462 98.0378 231.382 102.422C223.225 111.19 210.89 123.039 194.101 135.473C160.509 160.351 109.098 187.562 37.7083 197.132L36.582 188.703C106.343 179.351 156.432 152.794 189.053 128.635C205.37 116.551 217.32 105.063 225.171 96.6246C229.096 92.4059 231.994 88.9514 233.9 86.5684C234.852 85.377 235.557 84.4537 236.016 83.837C236.246 83.5286 236.415 83.297 236.524 83.1468C236.578 83.0717 236.617 83.017 236.641 82.9832L236.665 82.9484L236.669 82.9432Z" fill="#FABD47"/>
<path d="M101.415 215.623H68.5583C64.8226 215.623 61.8086 212.604 61.8086 208.863V166.129C61.8086 162.387 64.8226 159.368 68.5583 159.368H101.415C105.151 159.368 108.165 162.387 108.165 166.129V208.82C108.208 212.562 105.151 215.623 101.415 215.623Z" fill="#FABD47"/>
<path d="M32.9845 121.822C32.9845 121.822 -21.8199 169.446 9.84864 182.67C41.5172 195.894 32.9845 121.822 32.9845 121.822Z" fill="#FABD47"/>
</g>
<path d="M104.803 90.8436C107.456 90.8751 109.652 87.0707 109.708 82.3463C109.765 77.6219 107.659 73.7665 105.007 73.735C102.354 73.7035 100.158 77.5078 100.102 82.2322C100.045 86.9566 102.151 90.8121 104.803 90.8436Z" fill="#020202"/>
<path d="M165.993 91.57C168.646 91.6015 170.842 87.7972 170.898 83.0728C170.954 78.3484 168.849 74.4929 166.196 74.4614C163.543 74.4299 161.347 78.2343 161.291 82.9587C161.235 87.6831 163.34 91.5385 165.993 91.57Z" fill="#020202"/>
<path d="M119.723 99.0145C119.723 99.0145 136.855 85.0884 152.699 99.4061L119.723 99.0145Z" fill="#FABD47"/>
<path d="M119.723 99.0143C119.723 99.0143 136.519 113.343 152.698 99.4059L119.723 99.0143Z" fill="#FABD47"/>
<path d="M100.799 78.0694L108.793 73.0598L102.279 70.4497L100.799 78.0694Z" fill="#F7F9F8"/>
<path d="M160.972 76.6367L170.394 77.1172L166.554 71.243L160.972 76.6367Z" fill="#F7F9F8"/>
<path fill-rule="evenodd" clip-rule="evenodd" d="M109.445 69.8438C109.445 69.8447 109.444 69.8456 111.314 70.8544C113.183 71.8633 113.183 71.8643 113.182 71.8653L113.181 71.8676L113.178 71.8732L113.17 71.8876C113.164 71.8988 113.156 71.913 113.146 71.93C113.127 71.9642 113.101 72.0099 113.068 72.0661C113.003 72.1786 112.91 72.3337 112.789 72.5231C112.548 72.9013 112.196 73.4203 111.732 74.0131C110.81 75.1903 109.414 76.7038 107.54 77.9735C105.656 79.2499 103.259 80.299 100.38 80.4721C97.4894 80.6459 94.2724 79.927 90.7796 77.9161L92.8934 74.2306C95.7663 75.8846 98.1668 76.3457 100.122 76.2281C102.088 76.1099 103.765 75.3961 105.159 74.4515C106.563 73.5003 107.649 72.3348 108.39 71.3882C108.757 70.919 109.031 70.5149 109.209 70.2355C109.297 70.0961 109.362 69.9887 109.401 69.921C109.421 69.8871 109.434 69.8633 109.442 69.8504L109.448 69.8394L109.447 69.8403L109.446 69.8424L109.445 69.8438Z" fill="#020202"/>
<path fill-rule="evenodd" clip-rule="evenodd" d="M177.555 74.2522C177.554 74.2527 177.553 74.2533 178.667 76.0616C179.782 77.87 179.781 77.8706 179.78 77.8712L179.778 77.8726L179.772 77.8759L179.758 77.8845C179.747 77.8911 179.733 77.8994 179.717 77.9095C179.683 77.9295 179.638 77.9561 179.581 77.9884C179.468 78.0531 179.31 78.1408 179.111 78.2445C178.713 78.4517 178.148 78.7248 177.45 79.0061C176.063 79.5648 174.097 80.1774 171.84 80.3401C169.57 80.5035 166.97 80.2135 164.39 78.9239C161.799 77.6292 159.373 75.398 157.354 71.9102L161.027 69.7753C162.688 72.6442 164.536 74.2437 166.288 75.1195C168.05 76.0003 169.859 76.2204 171.539 76.0994C173.23 75.9776 174.753 75.5112 175.868 75.0619C176.421 74.8393 176.86 74.6262 177.154 74.4732C177.3 74.3968 177.41 74.3359 177.478 74.297C177.512 74.2775 177.535 74.2636 177.548 74.2561L177.559 74.2496L177.558 74.2501L177.556 74.2514L177.555 74.2522Z" fill="#020202"/>
<path d="M102 91.5C98.9999 96.1666 94.7999 105.5 102 105.5C109.2 105.5 105 96.1666 102 91.5Z" fill="#0077C8"/>
<path d="M171.975 91.5C168.975 96.1666 164.775 105.5 171.975 105.5C179.175 105.5 174.975 96.1666 171.975 91.5Z" fill="#0077C8"/>
<defs>
<clipPath id="clip0">
<rect width="270.796" height="278.087" fill="white"/>
</clipPath>
</defs>
</svg>
