<svg width="271" height="279" viewBox="0 0 271 279" fill="none" xmlns="http://www.w3.org/2000/svg">
<g clip-path="url(#clip0)">
<path d="M129.943 263.204H84.9873V278.129H129.943V263.204Z" fill="#F7934B"/>
<path d="M194.257 263.204H149.301V278.129H194.257V263.204Z" fill="#F7934B"/>
<path d="M114.109 249.938H100.864V263.204H114.109V249.938Z" fill="#F7934B"/>
<path d="M178.422 249.938H165.178V263.204H178.422V249.938Z" fill="#F7934B"/>
<path d="M240.146 116.38C240.146 116.38 292.573 166.597 260.31 178.29C228.047 189.941 240.146 116.38 240.146 116.38Z" fill="#FABD47"/>
<path d="M124.212 54.7244C124.212 54.7244 84.6055 24.407 92.374 8.03644C100.143 -8.3341 126.547 4.93242 140.514 16.5831C154.48 28.2339 160.89 -4.03949 178.253 0.425204C195.615 4.88989 157.919 54.7244 157.919 54.7244H124.212Z" fill="#3A3A3A"/>
<path d="M202.704 249.938H71.4448C50.7711 249.938 34.0029 233.142 34.0029 212.434V78.451C34.0029 57.7433 50.7711 40.9476 71.4448 40.9476H202.704C223.377 40.9476 240.146 57.7433 240.146 78.451V212.434C240.146 233.142 223.377 249.938 202.704 249.938Z" fill="#F7F9F8"/>
<path fill-rule="evenodd" clip-rule="evenodd" d="M71.4448 45.1997C53.1156 45.1997 38.248 60.0917 38.248 78.451V212.434C38.248 230.794 53.1156 245.686 71.4448 245.686H202.704C221.033 245.686 235.901 230.794 235.901 212.434V78.451C235.901 60.0917 221.033 45.1997 202.704 45.1997H71.4448ZM29.7578 78.451C29.7578 55.395 48.4266 36.6955 71.4448 36.6955H202.704C225.722 36.6955 244.391 55.395 244.391 78.451V212.434C244.391 235.49 225.722 254.19 202.704 254.19H71.4448C48.4266 254.19 29.7578 235.49 29.7578 212.434V78.451Z" fill="#F8BD48"/>
<path fill-rule="evenodd" clip-rule="evenodd" d="M236.669 82.9432C236.668 82.9442 236.667 82.9455 240.146 85.3819C243.626 87.8183 243.624 87.8203 243.623 87.8226L243.618 87.829L243.605 87.8477C243.594 87.8629 243.58 87.8834 243.562 87.9092C243.525 87.9608 243.473 88.0335 243.406 88.1266C243.272 88.3129 243.076 88.5811 242.818 88.9264C242.303 89.617 241.541 90.616 240.527 91.8845C238.498 94.4215 235.462 98.0378 231.382 102.422C223.225 111.19 210.89 123.039 194.101 135.473C160.509 160.351 109.098 187.562 37.7083 197.132L36.582 188.703C106.343 179.351 156.432 152.794 189.053 128.635C205.37 116.551 217.32 105.063 225.171 96.6246C229.096 92.4059 231.994 88.9514 233.9 86.5684C234.852 85.377 235.557 84.4537 236.016 83.837C236.246 83.5286 236.415 83.297 236.524 83.1468C236.578 83.0717 236.617 83.017 236.641 82.9832L236.665 82.9484L236.669 82.9432Z" fill="#FABD47"/>
<path d="M101.415 215.623H68.5583C64.8226 215.623 61.8086 212.604 61.8086 208.863V166.129C61.8086 162.387 64.8226 159.368 68.5583 159.368H101.415C105.151 159.368 108.165 162.387 108.165 166.129V208.82C108.208 212.562 105.151 215.623 101.415 215.623Z" fill="#FABD47"/>
<path d="M32.9845 121.822C32.9845 121.822 -21.8199 169.446 9.84864 182.67C41.5172 195.894 32.9845 121.822 32.9845 121.822Z" fill="#FABD47"/>
</g>
<path d="M106.803 92.8436C109.456 92.8751 111.652 89.0707 111.708 84.3463C111.765 79.6219 109.659 75.7665 107.007 75.735C104.354 75.7035 102.158 79.5078 102.102 84.2322C102.045 88.9566 104.151 92.8121 106.803 92.8436Z" fill="#020202"/>
<path d="M167.993 93.57C170.646 93.6015 172.842 89.7972 172.898 85.0728C172.954 80.3484 170.849 76.4929 168.196 76.4614C165.543 76.4299 163.347 80.2343 163.291 84.9587C163.235 89.6831 165.34 93.5385 167.993 93.57Z" fill="#020202"/>
<path d="M121.723 101.014C121.723 101.014 138.855 87.0884 154.699 101.406L121.723 101.014Z" fill="#FABD47"/>
<path d="M121.723 101.014C121.723 101.014 138.519 115.343 154.698 101.406L121.723 101.014Z" fill="#FABD47"/>
<path d="M102.799 80.0694L110.793 75.0598L104.279 72.4497L102.799 80.0694Z" fill="#F7F9F8"/>
<path d="M162.972 78.6367L172.394 79.1172L168.554 73.243L162.972 78.6367Z" fill="#F7F9F8"/>
<path fill-rule="evenodd" clip-rule="evenodd" d="M111.445 71.8438C111.445 71.8447 111.444 71.8456 113.314 72.8544C115.183 73.8633 115.183 73.8643 115.182 73.8653L115.181 73.8676L115.178 73.8732L115.17 73.8876C115.164 73.8988 115.156 73.913 115.146 73.93C115.127 73.9642 115.101 74.0099 115.068 74.0661C115.003 74.1786 114.91 74.3337 114.789 74.5231C114.548 74.9013 114.196 75.4203 113.732 76.0131C112.81 77.1903 111.414 78.7038 109.54 79.9735C107.656 81.2499 105.259 82.299 102.38 82.4721C99.4894 82.6459 96.2724 81.927 92.7796 79.9161L94.8934 76.2306C97.7663 77.8846 100.167 78.3457 102.122 78.2281C104.088 78.1099 105.765 77.3961 107.159 76.4515C108.563 75.5003 109.649 74.3348 110.39 73.3882C110.757 72.919 111.031 72.5149 111.209 72.2355C111.297 72.0961 111.362 71.9887 111.401 71.921C111.421 71.8871 111.434 71.8633 111.442 71.8504L111.448 71.8394L111.447 71.8403L111.446 71.8424L111.445 71.8438Z" fill="#020202"/>
<path fill-rule="evenodd" clip-rule="evenodd" d="M179.555 76.2522C179.554 76.2527 179.553 76.2533 180.667 78.0616C181.782 79.87 181.781 79.8706 181.78 79.8712L181.778 79.8726L181.772 79.8759L181.758 79.8845C181.747 79.8911 181.733 79.8994 181.717 79.9095C181.683 79.9295 181.638 79.9561 181.581 79.9884C181.468 80.0531 181.31 80.1408 181.111 80.2445C180.713 80.4517 180.148 80.7248 179.45 81.0061C178.063 81.5648 176.097 82.1774 173.84 82.3401C171.57 82.5035 168.97 82.2135 166.39 80.9239C163.799 79.6292 161.373 77.398 159.354 73.9102L163.027 71.7753C164.688 74.6442 166.536 76.2437 168.288 77.1195C170.05 78.0003 171.859 78.2204 173.539 78.0994C175.23 77.9776 176.753 77.5112 177.868 77.0619C178.421 76.8393 178.86 76.6262 179.154 76.4732C179.3 76.3968 179.41 76.3359 179.478 76.297C179.512 76.2775 179.535 76.2636 179.548 76.2561L179.559 76.2496L179.558 76.2501L179.556 76.2514L179.555 76.2522Z" fill="#020202"/>
<defs>
<clipPath id="clip0">
<rect width="270.796" height="278.087" fill="white"/>
</clipPath>
</defs>
</svg>
