<svg width="271" height="279" viewBox="0 0 271 279" fill="none" xmlns="http://www.w3.org/2000/svg">
<g clip-path="url(#clip0)">
<path d="M129.943 263.204H84.9873V278.129H129.943V263.204Z" fill="#F7934B"/>
<path d="M194.257 263.204H149.301V278.129H194.257V263.204Z" fill="#F7934B"/>
<path d="M114.109 249.938H100.864V263.204H114.109V249.938Z" fill="#F7934B"/>
<path d="M178.422 249.938H165.178V263.204H178.422V249.938Z" fill="#F7934B"/>
<path d="M240.146 116.38C240.146 116.38 292.573 166.597 260.31 178.29C228.047 189.941 240.146 116.38 240.146 116.38Z" fill="#FABD47"/>
<path d="M124.212 54.7244C124.212 54.7244 84.6055 24.407 92.374 8.03645C100.143 -8.33409 126.547 4.93242 140.514 16.5831C154.48 28.2339 160.89 -4.03948 178.253 0.42521C195.615 4.8899 157.919 54.7244 157.919 54.7244H124.212Z" fill="#3A3A3A"/>
<path d="M202.704 249.938H71.4448C50.7711 249.938 34.0029 233.142 34.0029 212.434V78.451C34.0029 57.7433 50.7711 40.9476 71.4448 40.9476H202.704C223.377 40.9476 240.146 57.7433 240.146 78.451V212.434C240.146 233.142 223.377 249.938 202.704 249.938Z" fill="#F7F9F8"/>
<path fill-rule="evenodd" clip-rule="evenodd" d="M71.4448 45.1997C53.1156 45.1997 38.248 60.0917 38.248 78.451V212.434C38.248 230.794 53.1156 245.686 71.4448 245.686H202.704C221.033 245.686 235.901 230.794 235.901 212.434V78.451C235.901 60.0917 221.033 45.1997 202.704 45.1997H71.4448ZM29.7578 78.451C29.7578 55.395 48.4266 36.6955 71.4448 36.6955H202.704C225.722 36.6955 244.391 55.395 244.391 78.451V212.434C244.391 235.49 225.722 254.19 202.704 254.19H71.4448C48.4266 254.19 29.7578 235.49 29.7578 212.434V78.451Z" fill="#F8BD48"/>
<path fill-rule="evenodd" clip-rule="evenodd" d="M236.669 82.9432C236.668 82.9442 236.667 82.9455 240.146 85.3819C243.626 87.8183 243.624 87.8203 243.623 87.8226L243.618 87.829L243.605 87.8477C243.594 87.8629 243.58 87.8834 243.562 87.9092C243.525 87.9608 243.473 88.0335 243.406 88.1266C243.272 88.3129 243.076 88.5811 242.818 88.9264C242.303 89.617 241.541 90.616 240.527 91.8845C238.498 94.4215 235.462 98.0378 231.382 102.422C223.225 111.19 210.89 123.039 194.101 135.473C160.509 160.351 109.098 187.562 37.7083 197.132L36.582 188.703C106.343 179.351 156.432 152.794 189.053 128.635C205.37 116.551 217.32 105.063 225.171 96.6246C229.096 92.4059 231.994 88.9514 233.9 86.5684C234.852 85.377 235.557 84.4537 236.016 83.837C236.246 83.5286 236.415 83.297 236.524 83.1468C236.578 83.0717 236.617 83.017 236.641 82.9832L236.665 82.9484L236.669 82.9432Z" fill="#FABD47"/>
<path d="M101.415 215.623H68.5583C64.8226 215.623 61.8086 212.604 61.8086 208.863V166.129C61.8086 162.387 64.8226 159.368 68.5583 159.368H101.415C105.151 159.368 108.165 162.387 108.165 166.129V208.82C108.208 212.562 105.151 215.623 101.415 215.623Z" fill="#FABD47"/>
<path d="M32.9845 121.822C32.9845 121.822 -21.8199 169.446 9.84864 182.67C41.5172 195.894 32.9845 121.822 32.9845 121.822Z" fill="#FABD47"/>
</g>
<path d="M104.803 95.8436C107.456 95.8751 109.652 92.0708 109.708 87.3464C109.765 82.622 107.659 78.7666 105.007 78.7351C102.354 78.7036 100.158 82.5079 100.102 87.2323C100.045 91.9567 102.151 95.8121 104.803 95.8436Z" fill="#020202"/>
<path d="M165.993 96.5701C168.646 96.6016 170.842 92.7972 170.898 88.0728C170.954 83.3484 168.849 79.493 166.196 79.4615C163.543 79.43 161.347 83.2343 161.291 87.9587C161.235 92.6831 163.34 96.5386 165.993 96.5701Z" fill="#020202"/>
<path d="M119.723 104.015C119.723 104.015 136.855 90.0885 152.699 104.406L119.723 104.015Z" fill="#FABD47"/>
<path d="M119.723 104.014C119.723 104.014 136.519 118.343 152.698 104.406L119.723 104.014Z" fill="#FABD47"/>
<path fill-rule="evenodd" clip-rule="evenodd" d="M109.445 66.8439C109.445 66.8447 109.444 66.8456 111.314 67.8545C113.183 68.8634 113.183 68.8643 113.182 68.8654L113.181 68.8677L113.178 68.8732L113.17 68.8877C113.164 68.8989 113.156 68.913 113.146 68.9301C113.127 68.9642 113.101 69.0099 113.068 69.0662C113.003 69.1787 112.91 69.3338 112.789 69.5232C112.548 69.9014 112.196 70.4204 111.732 71.0131C110.81 72.1903 109.414 73.7039 107.54 74.9736C105.656 76.25 103.259 77.299 100.38 77.4722C97.4894 77.646 94.2724 76.927 90.7796 74.9161L92.8934 71.2307C95.7663 72.8846 98.1668 73.3457 100.122 73.2282C102.088 73.1099 103.765 72.3961 105.159 71.4516C106.563 70.5004 107.649 69.3349 108.39 68.3882C108.757 67.9191 109.031 67.515 109.209 67.2356C109.297 67.0962 109.362 66.9888 109.401 66.9211C109.421 66.8872 109.434 66.8633 109.442 66.8504L109.448 66.8394L109.447 66.8403L109.446 66.8424L109.445 66.8439Z" fill="#020202"/>
<path fill-rule="evenodd" clip-rule="evenodd" d="M177.555 70.2522C177.554 70.2527 177.553 70.2533 178.667 72.0616C179.782 73.87 179.781 73.8706 179.78 73.8712L179.778 73.8726L179.772 73.8759L179.758 73.8845C179.747 73.8911 179.733 73.8994 179.717 73.9095C179.683 73.9295 179.638 73.9561 179.581 73.9884C179.468 74.0531 179.31 74.1408 179.111 74.2445C178.713 74.4517 178.148 74.7248 177.45 75.0061C176.063 75.5648 174.097 76.1774 171.84 76.3401C169.57 76.5035 166.97 76.2135 164.39 74.9239C161.799 73.6292 159.373 71.398 157.354 67.9102L161.027 65.7753C162.688 68.6442 164.536 70.2437 166.288 71.1195C168.05 72.0003 169.859 72.2204 171.539 72.0994C173.23 71.9776 174.753 71.5112 175.868 71.0619C176.421 70.8393 176.86 70.6262 177.154 70.4732C177.3 70.3968 177.41 70.3359 177.478 70.297C177.512 70.2775 177.535 70.2636 177.548 70.2561L177.559 70.2496L177.558 70.2501L177.556 70.2514L177.555 70.2522Z" fill="#020202"/>
<defs>
<clipPath id="clip0">
<rect width="270.796" height="278.087" fill="white"/>
</clipPath>
</defs>
</svg>
