<svg width="303" height="187" viewBox="0 0 303 187" fill="none" xmlns="http://www.w3.org/2000/svg">
<path d="M56.3347 155.715C40.4301 171.549 46.715 183.169 51.8455 187H271.817C283.104 166.058 267.114 161.674 257.708 162.1C259.76 132.475 235.475 134.008 223.077 138.477C221.537 102.212 195.073 108.895 182.032 116.769C169.206 67.7357 138.637 84.4207 124.955 98.8925C101.868 93.274 95.6687 119.11 95.4549 132.731C63.6457 122.516 56.1209 143.798 56.3347 155.715Z" fill="#9CDCF2"/>
<path d="M48.5803 112.453C48.3498 105.821 49.0073 94.5116 41.5856 89.8551C35.0654 85.7667 29.9957 91.3152 28.1657 95.7912C23.733 106.649 25.8138 118.623 25.8273 129.831C25.8273 130.001 25.8273 130.171 25.8273 130.362C25.4817 138.613 24.2142 147.539 25.3665 155.774C25.3665 155.774 24.2346 147.523 15.9657 151.059C7.69686 154.595 20.1002 173.152 20.1002 173.152C20.1002 173.152 10.3266 167.556 5.81266 172.271C1.29867 176.986 11.4518 182.285 11.4518 182.285C11.4518 182.285 2.05101 180.225 2.05101 182.285C2.05101 184.345 5.0603 186.113 13.7087 187H60.3261C60.3261 187 67.8494 183.756 66.3448 180.225C64.8401 176.694 56.9373 178.728 56.9373 178.728C56.9373 178.728 68.9746 167.238 68.2222 162.231C67.4699 157.224 52.0505 163.117 52.0505 163.117C52.0505 163.117 64.081 139.256 61.824 128.653C60.0483 120.3 51.7726 125.998 47.2654 129.226C48.3263 123.676 48.7663 118.063 48.5803 112.453Z" fill="#5BC2E7"/>
<path d="M60.332 45.1945C50.8975 54.629 50.7211 69.757 50.7211 69.757C50.7211 69.757 65.8492 69.5806 75.2836 60.1461C84.7181 50.7116 84.8945 35.5836 84.8945 35.5836C84.8945 35.5836 69.7726 35.7539 60.332 45.1945Z" fill="#5BC2E7"/>
<path opacity="0.5" d="M50.7211 69.757L84.8945 35.5836" stroke="white" stroke-linecap="round" stroke-linejoin="round"/>
<path opacity="0.5" d="M72.7471 47.7311L72.2179 39.8903" stroke="white" stroke-linecap="round" stroke-linejoin="round"/>
<path opacity="0.5" d="M67.1691 53.4427L79.8579 51.1191" stroke="white" stroke-linecap="round" stroke-linejoin="round"/>
<path opacity="0.5" d="M63.8478 56.6302L63.1787 44.939" stroke="white" stroke-linecap="round" stroke-linejoin="round"/>
<path opacity="0.5" d="M59.529 61.0829L71.0864 61.752" stroke="white" stroke-linecap="round" stroke-linejoin="round"/>
<path opacity="0.5" d="M55.7394 64.8725L54.7418 56.2957" stroke="white" stroke-linecap="round" stroke-linejoin="round"/>
<path d="M167.731 65.7917C158.297 75.2261 158.12 90.3542 158.12 90.3542C158.12 90.3542 173.248 90.1778 182.683 80.7433C192.117 71.3088 192.294 56.1808 192.294 56.1808C192.294 56.1808 177.172 56.3511 167.731 65.7917Z" fill="#5BC2E7"/>
<path opacity="0.5" d="M158.12 90.3542L192.294 56.1808" stroke="white" stroke-linecap="round" stroke-linejoin="round"/>
<path opacity="0.5" d="M180.146 68.3282L179.617 60.4874" stroke="white" stroke-linecap="round" stroke-linejoin="round"/>
<path opacity="0.5" d="M174.568 74.0399L187.257 71.7162" stroke="white" stroke-linecap="round" stroke-linejoin="round"/>
<path opacity="0.5" d="M171.247 77.2274L170.578 65.5361" stroke="white" stroke-linecap="round" stroke-linejoin="round"/>
<path opacity="0.5" d="M166.928 81.68L178.486 82.3491" stroke="white" stroke-linecap="round" stroke-linejoin="round"/>
<path opacity="0.5" d="M163.139 85.4697L162.141 76.8928" stroke="white" stroke-linecap="round" stroke-linejoin="round"/>
<path d="M212.637 20.9268C201.082 14.2556 186.424 18.0006 186.424 18.0006C186.424 18.0006 190.51 32.5675 202.064 39.2387C213.619 45.9099 228.278 42.1649 228.278 42.1649C228.278 42.1649 224.199 27.6023 212.637 20.9268Z" fill="#5BC2E7"/>
<path opacity="0.5" d="M186.424 18.0007L228.278 42.1649" stroke="white" stroke-linecap="round" stroke-linejoin="round"/>
<path opacity="0.5" d="M213.4 33.5753L220.837 31.0348" stroke="white" stroke-linecap="round" stroke-linejoin="round"/>
<path opacity="0.5" d="M206.439 29.6658L211.968 41.3208" stroke="white" stroke-linecap="round" stroke-linejoin="round"/>
<path opacity="0.5" d="M202.501 27.2826L213.62 23.6104" stroke="white" stroke-linecap="round" stroke-linejoin="round"/>
<path opacity="0.5" d="M197.082 24.2635L199.427 35.6002" stroke="white" stroke-linecap="round" stroke-linejoin="round"/>
<path opacity="0.5" d="M192.441 21.5838L200.467 18.4004" stroke="white" stroke-linecap="round" stroke-linejoin="round"/>
<path d="M8.45119 26.3037C8.00715 34.0472 13.7311 40.6592 13.7311 40.6592C13.7311 40.6592 20.2276 34.7589 20.696 27.0397C21.1643 19.3206 15.416 12.6842 15.416 12.6842C15.416 12.6842 8.91349 18.5785 8.45119 26.3037Z" fill="#5BC2E7"/>
<path opacity="0.5" d="M13.7311 40.6592L15.416 12.6842" stroke="white" stroke-linecap="round" stroke-linejoin="round"/>
<path opacity="0.5" d="M14.8138 22.6297L11.5656 19.4301" stroke="white" stroke-linecap="round" stroke-linejoin="round"/>
<path opacity="0.5" d="M14.5949 27.2527L19.2057 21.3645" stroke="white" stroke-linecap="round" stroke-linejoin="round"/>
<path opacity="0.5" d="M14.3758 29.9168L9.59474 25.0992" stroke="white" stroke-linecap="round" stroke-linejoin="round"/>
<path opacity="0.5" d="M14.2177 33.5058L19.4855 29.3452" stroke="white" stroke-linecap="round" stroke-linejoin="round"/>
<path opacity="0.5" d="M14.0352 36.608L10.3004 33.2746" stroke="white" stroke-linecap="round" stroke-linejoin="round"/>
<path d="M258.409 29.4572C253.599 35.5417 254.488 44.2418 254.488 44.2418C254.488 44.2418 263.195 43.1419 268.011 37.0913C272.827 31.0407 271.932 22.3067 271.932 22.3067C271.932 22.3067 263.224 23.3982 258.409 29.4572Z" fill="#5BC2E7"/>
<path opacity="0.5" d="M254.488 44.2419L271.932 22.3068" stroke="white" stroke-linecap="round" stroke-linejoin="round"/>
<path opacity="0.5" d="M265.728 30.1031L264.906 25.6184" stroke="white" stroke-linecap="round" stroke-linejoin="round"/>
<path opacity="0.5" d="M262.894 33.7621L270.05 31.5892" stroke="white" stroke-linecap="round" stroke-linejoin="round"/>
<path opacity="0.5" d="M261.185 35.8175L260.037 29.1279" stroke="white" stroke-linecap="round" stroke-linejoin="round"/>
<path opacity="0.5" d="M258.994 38.6649L265.696 38.2836" stroke="white" stroke-linecap="round" stroke-linejoin="round"/>
<path opacity="0.5" d="M257.064 41.0998L255.92 36.2261" stroke="white" stroke-linecap="round" stroke-linejoin="round"/>
<path d="M20.3822 81.5991C12.6448 81.7085 6.46469 87.9374 6.46469 87.9374C6.46469 87.9374 12.8274 93.9716 20.5647 93.8499C28.3021 93.7283 34.4883 87.5177 34.4883 87.5177C34.4883 87.5177 28.1196 81.4774 20.3822 81.5991Z" fill="#5BC2E7"/>
<path opacity="0.5" d="M6.46469 87.9374L34.4883 87.5177" stroke="white" stroke-linecap="round" stroke-linejoin="round"/>
<path opacity="0.5" d="M24.5246 87.6636L27.4748 84.1903" stroke="white" stroke-linecap="round" stroke-linejoin="round"/>
<path opacity="0.5" d="M19.8956 87.7914L26.1184 91.946" stroke="white" stroke-linecap="round" stroke-linejoin="round"/>
<path opacity="0.5" d="M17.2252 87.7731L21.6718 82.6453" stroke="white" stroke-linecap="round" stroke-linejoin="round"/>
<path opacity="0.5" d="M13.6303 87.8766L18.1681 92.828" stroke="white" stroke-linecap="round" stroke-linejoin="round"/>
<path opacity="0.5" d="M10.5281 87.9253L13.5695 83.9592" stroke="white" stroke-linecap="round" stroke-linejoin="round"/>
<path d="M129.909 52.2563C122.171 52.3658 115.991 58.5946 115.991 58.5946C115.991 58.5946 122.354 64.6288 130.091 64.5071C137.828 64.3855 144.015 58.1749 144.015 58.1749C144.015 58.1749 137.646 52.1346 129.909 52.2563Z" fill="#5BC2E7"/>
<path opacity="0.5" d="M115.991 58.5946L144.015 58.1749" stroke="white" stroke-linecap="round" stroke-linejoin="round"/>
<path opacity="0.5" d="M134.051 58.3208L137.001 54.8475" stroke="white" stroke-linecap="round" stroke-linejoin="round"/>
<path opacity="0.5" d="M129.422 58.4486L135.645 62.6032" stroke="white" stroke-linecap="round" stroke-linejoin="round"/>
<path opacity="0.5" d="M126.752 58.4303L131.198 53.3025" stroke="white" stroke-linecap="round" stroke-linejoin="round"/>
<path opacity="0.5" d="M123.157 58.5338L127.694 63.4852" stroke="white" stroke-linecap="round" stroke-linejoin="round"/>
<path opacity="0.5" d="M120.054 58.5825L123.096 54.6165" stroke="white" stroke-linecap="round" stroke-linejoin="round"/>
<g clip-path="url(#clip0)">
<path d="M244.787 180.937H226.469V187.017H244.787V180.937Z" fill="#F7934B"/>
<path d="M270.993 180.937H252.675V187.017H270.993V180.937Z" fill="#F7934B"/>
<path d="M238.335 175.533H232.938V180.937H238.335V175.533Z" fill="#F7934B"/>
<path d="M264.541 175.533H259.144V180.937H264.541V175.533Z" fill="#F7934B"/>
<path d="M289.692 121.125C289.692 121.125 311.054 141.582 297.908 146.346C284.762 151.092 289.692 121.125 289.692 121.125Z" fill="#FABD47"/>
<path d="M242.452 96.0088C242.452 96.0088 226.313 83.6584 229.479 76.9896C232.644 70.3207 243.403 75.7251 249.094 80.4712C254.785 85.2174 257.397 72.0702 264.472 73.889C271.547 75.7078 256.186 96.0088 256.186 96.0088H242.452Z" fill="#3A3A3A"/>
<path d="M274.435 175.533H220.951C212.527 175.533 205.694 168.691 205.694 160.255V105.674C205.694 97.2386 212.527 90.3965 220.951 90.3965H274.435C282.859 90.3965 289.692 97.2386 289.692 105.674V160.255C289.692 168.691 282.859 175.533 274.435 175.533Z" fill="#F7F9F8"/>
<path fill-rule="evenodd" clip-rule="evenodd" d="M220.951 92.1288C213.482 92.1288 207.424 98.1953 207.424 105.674V160.255C207.424 167.734 213.482 173.801 220.951 173.801H274.435C281.904 173.801 287.962 167.734 287.962 160.255V105.674C287.962 98.1953 281.904 92.1288 274.435 92.1288H220.951ZM203.965 105.674C203.965 96.282 211.572 88.6644 220.951 88.6644H274.435C283.814 88.6644 291.421 96.282 291.421 105.674V160.255C291.421 169.648 283.814 177.265 274.435 177.265H220.951C211.572 177.265 203.965 169.648 203.965 160.255V105.674Z" fill="#F8BD48"/>
<path d="M241.483 112.187C241.483 112.187 248.264 106.523 254.664 112.187H241.483Z" fill="#FABD47"/>
<path d="M241.483 112.187C241.483 112.187 248.264 117.851 254.664 112.187H241.483Z" fill="#FABD47"/>
<path fill-rule="evenodd" clip-rule="evenodd" d="M288.275 107.504C288.274 107.505 288.274 107.505 289.692 108.498C291.109 109.49 291.109 109.491 291.108 109.492L291.106 109.495L291.101 109.502C291.097 109.509 291.091 109.517 291.083 109.527C291.068 109.548 291.047 109.578 291.02 109.616C290.965 109.692 290.885 109.801 290.78 109.942C290.571 110.223 290.26 110.63 289.847 111.147C289.02 112.18 287.783 113.653 286.121 115.44C282.797 119.011 277.771 123.838 270.929 128.903C257.242 139.038 236.293 150.123 207.204 154.021L206.745 150.588C235.17 146.778 255.58 135.96 268.873 126.118C275.521 121.195 280.391 116.515 283.59 113.078C285.189 111.359 286.37 109.952 287.146 108.981C287.534 108.496 287.821 108.12 288.009 107.868C288.103 107.743 288.171 107.648 288.215 107.587C288.238 107.557 288.253 107.534 288.263 107.521L288.273 107.507L288.275 107.504Z" fill="#FABD47"/>
<path d="M233.163 161.554H219.775C218.252 161.554 217.024 160.324 217.024 158.8V141.392C217.024 139.867 218.252 138.638 219.775 138.638H233.163C234.685 138.638 235.913 139.867 235.913 141.392V158.783C235.931 160.307 234.685 161.554 233.163 161.554Z" fill="#FABD47"/>
<path d="M205.279 123.343C205.279 123.343 182.948 142.743 195.852 148.13C208.756 153.517 205.279 123.343 205.279 123.343Z" fill="#FABD47"/>
<path fill-rule="evenodd" clip-rule="evenodd" d="M256.452 107.17C256.452 107.17 256.452 107.169 255.823 106.575C255.194 105.981 255.194 105.981 255.194 105.98L255.195 105.98L255.197 105.978L255.201 105.973C255.205 105.969 255.21 105.964 255.215 105.959C255.226 105.947 255.241 105.932 255.26 105.913C255.298 105.876 255.351 105.825 255.418 105.763C255.553 105.64 255.746 105.472 255.992 105.288C256.478 104.922 257.188 104.474 258.059 104.172C258.935 103.868 259.989 103.708 261.141 103.944C262.297 104.18 263.487 104.802 264.65 105.961L263.429 107.189C262.473 106.235 261.577 105.801 260.795 105.641C260.008 105.48 259.273 105.584 258.625 105.809C257.972 106.035 257.422 106.379 257.03 106.673C256.836 106.819 256.686 106.949 256.586 107.041C256.537 107.086 256.5 107.122 256.477 107.144C256.466 107.155 256.458 107.163 256.454 107.168L256.45 107.171L256.451 107.171L256.451 107.17L256.452 107.17Z" fill="#020202"/>
<path fill-rule="evenodd" clip-rule="evenodd" d="M231.751 107.17C231.751 107.17 231.751 107.169 231.122 106.575C230.493 105.981 230.493 105.981 230.493 105.98L230.494 105.98L230.496 105.978L230.5 105.973C230.504 105.969 230.508 105.964 230.514 105.959C230.525 105.947 230.54 105.932 230.559 105.913C230.597 105.876 230.65 105.825 230.717 105.763C230.852 105.64 231.045 105.472 231.29 105.288C231.777 104.922 232.486 104.474 233.358 104.172C234.234 103.868 235.288 103.708 236.44 103.944C237.596 104.18 238.786 104.802 239.949 105.961L238.728 107.189C237.772 106.235 236.875 105.801 236.094 105.641C235.307 105.48 234.572 105.584 233.924 105.809C233.271 106.035 232.72 106.379 232.329 106.673C232.135 106.819 231.985 106.949 231.885 107.041C231.835 107.086 231.799 107.122 231.776 107.144C231.765 107.155 231.757 107.163 231.753 107.168L231.749 107.171L231.75 107.171L231.75 107.17L231.751 107.17Z" fill="#020202"/>
</g>
<defs>
<clipPath id="clip0">
<rect width="110.342" height="113.284" fill="white" transform="translate(191.839 73.7157)"/>
</clipPath>
</defs>
</svg>
