<svg width="274" height="179" viewBox="0 0 274 179" fill="none" xmlns="http://www.w3.org/2000/svg">
<path d="M246.349 24.8687C247.789 23.5723 250.046 24.8757 249.644 26.7709L248.884 30.344C248.704 31.1915 249.09 32.0586 249.84 32.4919L253.004 34.3183C254.682 35.2871 254.14 37.8369 252.213 38.0394L248.58 38.4213C247.718 38.5118 247.013 39.147 246.833 39.9945L246.073 43.5676C245.671 45.4627 243.078 45.7352 242.29 43.9653L240.804 40.6281C240.452 39.8366 239.63 39.362 238.768 39.4526L235.135 39.8344C233.208 40.0369 232.148 37.6555 233.588 36.3591L236.302 33.9148C236.946 33.335 237.144 32.4065 236.791 31.615L235.305 28.2779C234.517 26.5079 236.455 24.7636 238.133 25.7323L241.296 27.5588C242.046 27.992 242.99 27.8928 243.634 27.313L246.349 24.8687Z" fill="#FABD47"/>
<path d="M262.591 91.1022C263.311 90.454 264.44 91.1057 264.238 92.0533L263.582 95.1409C263.492 95.5646 263.685 95.9982 264.06 96.2148L266.794 97.7931C267.633 98.2775 267.362 99.5524 266.398 99.6537L263.259 99.9836C262.828 100.029 262.475 100.346 262.385 100.77L261.729 103.858C261.528 104.805 260.231 104.942 259.837 104.057L258.553 101.173C258.377 100.777 257.966 100.54 257.535 100.585L254.396 100.915C253.433 101.016 252.902 99.8257 253.622 99.1775L255.968 97.0653C256.29 96.7754 256.389 96.3112 256.213 95.9154L254.929 93.0317C254.535 92.1468 255.503 91.2746 256.342 91.759L259.076 93.3373C259.451 93.5539 259.923 93.5043 260.245 93.2144L262.591 91.1022Z" fill="#FABD47"/>
<path d="M68.3491 11.8687C69.7889 10.5723 72.0464 11.8757 71.6436 13.7709L70.8841 17.344C70.704 18.1915 71.0901 19.0586 71.8404 19.4919L75.004 21.3183C76.6819 22.2871 76.1399 24.8369 74.213 25.0394L70.5801 25.4213C69.7184 25.5118 69.013 26.147 68.8329 26.9945L68.0734 30.5676C67.6705 32.4627 65.078 32.7352 64.29 30.9653L62.8042 27.6281C62.4518 26.8366 61.6297 26.362 60.768 26.4526L57.1351 26.8344C55.2083 27.0369 54.148 24.6555 55.5878 23.3591L58.3024 20.9148C58.9463 20.335 59.1437 19.4065 58.7913 18.615L57.3055 15.2779C56.5175 13.5079 58.4547 11.7636 60.1326 12.7323L63.2961 14.5588C64.0465 14.992 64.9905 14.8928 65.6344 14.313L68.3491 11.8687Z" fill="#FABD47"/>
<path d="M13.4535 96.8443C12.486 95.1658 14.2317 93.2298 16.001 94.019L19.3371 95.5072C20.1284 95.8601 21.057 95.6634 21.6373 95.0199L24.0835 92.307C25.3809 90.8681 27.7616 91.93 27.5577 93.8567L27.1733 97.4894C27.0821 98.351 27.5562 99.1734 28.3475 99.5264L31.6836 101.015C33.453 101.804 33.1787 104.396 31.2833 104.798L27.7096 105.555C26.862 105.734 26.2263 106.439 26.1352 107.301L25.7508 110.933C25.5469 112.86 22.9967 113.4 22.0291 111.722L20.2049 108.557C19.7722 107.806 18.9053 107.42 18.0577 107.599L14.484 108.356C12.5886 108.758 11.2868 106.499 12.5842 105.06L15.0304 102.347C15.6106 101.704 15.7105 100.76 15.2778 100.009L13.4535 96.8443Z" fill="#FABD47"/>
<g clip-path="url(#clip0)">
<path d="M134.458 170.705H109.39V179.024H134.458V170.705Z" fill="#F7934B"/>
<path d="M170.32 170.705H145.252V179.024H170.32V170.705Z" fill="#F7934B"/>
<path d="M125.629 163.31H118.243V170.705H125.629V163.31Z" fill="#F7934B"/>
<path d="M161.491 163.31H154.105V170.705H161.491V163.31Z" fill="#F7934B"/>
<path d="M195.909 88.8677C195.909 88.8677 225.143 116.858 207.153 123.375C189.163 129.869 195.909 88.8677 195.909 88.8677Z" fill="#FABD47"/>
<path d="M131.263 54.5024C131.263 54.5024 109.177 37.6041 113.509 28.4795C117.841 19.3548 132.565 26.7493 140.352 33.2432C148.14 39.7371 151.715 21.7486 161.396 24.2371C171.078 26.7256 150.058 54.5024 150.058 54.5024H131.263Z" fill="#3A3A3A"/>
<path d="M175.031 163.31H101.839C90.3109 163.31 80.9607 153.949 80.9607 142.407V67.7269C80.9607 56.1849 90.3109 46.8232 101.839 46.8232H175.031C186.559 46.8232 195.909 56.1849 195.909 67.7269V142.407C195.909 153.949 186.559 163.31 175.031 163.31Z" fill="#F7F9F8"/>
<path fill-rule="evenodd" clip-rule="evenodd" d="M101.839 49.1934C91.6182 49.1934 83.3278 57.494 83.3278 67.7271V142.407C83.3278 152.64 91.6182 160.94 101.839 160.94H175.031C185.251 160.94 193.542 152.64 193.542 142.407V67.7271C193.542 57.494 185.251 49.1934 175.031 49.1934H101.839ZM78.5935 67.7271C78.5935 54.8761 89.0035 44.4534 101.839 44.4534H175.031C187.866 44.4534 198.276 54.8761 198.276 67.7271V142.407C198.276 155.258 187.866 165.68 175.031 165.68H101.839C89.0035 165.68 78.5935 155.258 78.5935 142.407V67.7271Z" fill="#F8BD48"/>
<path d="M129.937 76.6383C129.937 76.6383 139.216 68.8883 147.975 76.6383H129.937Z" fill="#FABD47"/>
<path d="M129.937 76.6382C129.937 76.6382 139.216 84.3882 147.975 76.6382H129.937Z" fill="#FABD47"/>
<path fill-rule="evenodd" clip-rule="evenodd" d="M193.97 70.231C193.97 70.2315 193.969 70.2322 195.909 71.5902C197.849 72.9482 197.848 72.9493 197.848 72.9506L197.845 72.9542L197.838 72.9646C197.832 72.9731 197.824 72.9845 197.813 72.9989C197.793 73.0277 197.764 73.0682 197.727 73.1201C197.652 73.2239 197.543 73.3734 197.399 73.5659C197.112 73.9508 196.687 74.5076 196.121 75.2147C194.99 76.6287 193.297 78.6444 191.022 81.0882C186.473 85.9753 179.596 92.5794 170.233 99.51C151.502 113.376 122.834 128.543 83.0264 133.877L82.3984 129.179C121.298 123.967 149.229 109.164 167.419 95.6986C176.517 88.963 183.181 82.56 187.559 77.8567C189.747 75.5053 191.363 73.5798 192.426 72.2516C192.957 71.5875 193.35 71.0729 193.606 70.7291C193.734 70.5573 193.829 70.4281 193.889 70.3444C193.919 70.3026 193.941 70.2721 193.954 70.2532L193.968 70.2338L193.97 70.231Z" fill="#FABD47"/>
<path d="M118.551 144.184H100.229C98.1462 144.184 96.4656 142.501 96.4656 140.416V116.597C96.4656 114.511 98.1462 112.829 100.229 112.829H118.551C120.634 112.829 122.315 114.511 122.315 116.597V140.392C122.338 142.478 120.634 144.184 118.551 144.184Z" fill="#FABD47"/>
<path d="M80.3927 91.9014C80.3927 91.9014 49.8329 118.446 67.4917 125.816C85.1506 133.187 80.3927 91.9014 80.3927 91.9014Z" fill="#FABD47"/>
<path fill-rule="evenodd" clip-rule="evenodd" d="M150.421 69.7732C150.421 69.7728 150.422 69.7724 149.561 68.9596C148.699 68.1467 148.7 68.1463 148.7 68.1458L148.701 68.1447L148.704 68.1422L148.71 68.1356C148.715 68.1304 148.721 68.1239 148.729 68.1161C148.744 68.1005 148.765 68.0796 148.79 68.0541C148.842 68.003 148.914 67.9329 149.007 67.8483C149.191 67.6794 149.456 67.4509 149.791 67.1987C150.458 66.6979 151.428 66.0844 152.621 65.6712C153.82 65.2557 155.262 65.0367 156.838 65.3589C158.42 65.6823 160.049 66.5334 161.64 68.1199L159.969 69.7992C158.661 68.4943 157.434 67.8997 156.364 67.681C155.288 67.461 154.282 67.6034 153.395 67.9108C152.501 68.2204 151.748 68.6913 151.213 69.094C150.947 69.2936 150.741 69.4717 150.605 69.5965C150.537 69.6587 150.487 69.7072 150.456 69.738C150.44 69.7534 150.43 69.7643 150.424 69.7702L150.419 69.7753L150.42 69.7748L150.42 69.7739L150.421 69.7732Z" fill="#020202"/>
<path fill-rule="evenodd" clip-rule="evenodd" d="M116.618 69.7732C116.619 69.7728 116.619 69.7724 115.758 68.9596C114.897 68.1467 114.897 68.1463 114.897 68.1458L114.898 68.1447L114.901 68.1422L114.907 68.1356C114.912 68.1304 114.918 68.1239 114.926 68.1161C114.941 68.1005 114.962 68.0796 114.988 68.0541C115.039 68.003 115.112 67.9329 115.204 67.8483C115.388 67.6794 115.653 67.4509 115.989 67.1987C116.655 66.6979 117.625 66.0844 118.818 65.6712C120.017 65.2557 121.459 65.0367 123.035 65.3589C124.617 65.6823 126.246 66.5334 127.837 68.1199L126.167 69.7992C124.858 68.4943 123.631 67.8997 122.561 67.681C121.485 67.461 120.479 67.6034 119.592 67.9108C118.699 68.2204 117.946 68.6913 117.41 69.094C117.144 69.2936 116.938 69.4717 116.802 69.5965C116.734 69.6587 116.684 69.7072 116.653 69.738C116.638 69.7534 116.627 69.7643 116.621 69.7702L116.616 69.7753L116.617 69.7748L116.618 69.7739L116.618 69.7732Z" fill="#020202"/>
</g>
<defs>
<clipPath id="clip0">
<rect width="151" height="155" fill="white" transform="translate(62 24)"/>
</clipPath>
</defs>
</svg>
