<svg width="271" height="279" viewBox="0 0 271 279" fill="none" xmlns="http://www.w3.org/2000/svg">
<g clip-path="url(#clip0)">
<path d="M129.943 263.204H84.9873V278.129H129.943V263.204Z" fill="#F7934B"/>
<path d="M194.257 263.204H149.301V278.129H194.257V263.204Z" fill="#F7934B"/>
<path d="M114.109 249.938H100.864V263.204H114.109V249.938Z" fill="#F7934B"/>
<path d="M178.422 249.938H165.178V263.204H178.422V249.938Z" fill="#F7934B"/>
<path d="M240.146 116.38C240.146 116.38 292.573 166.597 260.31 178.29C228.047 189.941 240.146 116.38 240.146 116.38Z" fill="#FABD47"/>
<path d="M124.212 54.7244C124.212 54.7244 84.6055 24.407 92.374 8.03645C100.143 -8.33409 126.547 4.93242 140.514 16.5831C154.48 28.2339 160.89 -4.03948 178.253 0.42521C195.615 4.8899 157.919 54.7244 157.919 54.7244H124.212Z" fill="#3A3A3A"/>
<path d="M202.704 249.938H71.4448C50.7711 249.938 34.0029 233.142 34.0029 212.434V78.451C34.0029 57.7433 50.7711 40.9476 71.4448 40.9476H202.704C223.377 40.9476 240.146 57.7433 240.146 78.451V212.434C240.146 233.142 223.377 249.938 202.704 249.938Z" fill="#F7F9F8"/>
<path fill-rule="evenodd" clip-rule="evenodd" d="M71.4448 45.1997C53.1156 45.1997 38.248 60.0917 38.248 78.451V212.434C38.248 230.794 53.1156 245.686 71.4448 245.686H202.704C221.033 245.686 235.901 230.794 235.901 212.434V78.451C235.901 60.0917 221.033 45.1997 202.704 45.1997H71.4448ZM29.7578 78.451C29.7578 55.395 48.4266 36.6955 71.4448 36.6955H202.704C225.722 36.6955 244.391 55.395 244.391 78.451V212.434C244.391 235.49 225.722 254.19 202.704 254.19H71.4448C48.4266 254.19 29.7578 235.49 29.7578 212.434V78.451Z" fill="#F8BD48"/>
<path d="M121.835 94.4388C121.835 94.4388 138.476 80.5345 154.183 94.4388H121.835Z" fill="#FABD47"/>
<path d="M121.835 94.4389C121.835 94.4389 138.476 108.343 154.183 94.4389H121.835Z" fill="#FABD47"/>
<path fill-rule="evenodd" clip-rule="evenodd" d="M236.669 82.9432C236.668 82.9442 236.667 82.9455 240.146 85.3819C243.626 87.8183 243.624 87.8203 243.623 87.8226L243.618 87.829L243.605 87.8477C243.594 87.8629 243.58 87.8834 243.562 87.9092C243.525 87.9608 243.473 88.0335 243.406 88.1266C243.272 88.3129 243.076 88.5811 242.818 88.9264C242.303 89.617 241.541 90.616 240.527 91.8845C238.498 94.4215 235.462 98.0378 231.382 102.422C223.225 111.19 210.89 123.039 194.101 135.473C160.509 160.351 109.098 187.562 37.7083 197.132L36.582 188.703C106.343 179.351 156.432 152.794 189.053 128.635C205.37 116.551 217.32 105.063 225.171 96.6246C229.096 92.4059 231.994 88.9514 233.9 86.5684C234.852 85.377 235.557 84.4537 236.016 83.837C236.246 83.5286 236.415 83.297 236.524 83.1468C236.578 83.0717 236.617 83.017 236.641 82.9832L236.665 82.9484L236.669 82.9432Z" fill="#FABD47"/>
<path d="M101.415 215.623H68.5583C64.8226 215.623 61.8086 212.604 61.8086 208.863V166.129C61.8086 162.387 64.8226 159.368 68.5583 159.368H101.415C105.151 159.368 108.165 162.387 108.165 166.129V208.82C108.208 212.562 105.151 215.623 101.415 215.623Z" fill="#FABD47"/>
<path d="M32.9845 121.822C32.9845 121.822 -21.8199 169.446 9.84864 182.67C41.5172 195.894 32.9845 121.822 32.9845 121.822Z" fill="#FABD47"/>
<path fill-rule="evenodd" clip-rule="evenodd" d="M158.57 82.1218C158.57 82.1211 158.571 82.1204 157.026 80.6621C155.482 79.2038 155.483 79.203 155.483 79.2021L155.485 79.2002L155.49 79.1956L155.501 79.1837C155.51 79.1745 155.521 79.1628 155.535 79.1488C155.562 79.1208 155.599 79.0834 155.645 79.0375C155.737 78.9458 155.868 78.8201 156.033 78.6684C156.363 78.3654 156.838 77.9554 157.44 77.5029C158.635 76.6043 160.375 75.5037 162.514 74.7623C164.664 74.017 167.251 73.6241 170.077 74.202C172.914 74.7822 175.835 76.3093 178.688 79.1557L175.693 82.1685C173.346 79.8273 171.147 78.7606 169.228 78.3682C167.298 77.9734 165.494 78.229 163.903 78.7805C162.3 79.336 160.95 80.1808 159.989 80.9033C159.513 81.2614 159.144 81.5809 158.899 81.8047C158.778 81.9164 158.688 82.0035 158.632 82.0587C158.604 82.0863 158.585 82.1059 158.575 82.1165L158.566 82.1255L158.567 82.1248L158.568 82.123L158.57 82.1218Z" fill="#020202"/>
<path fill-rule="evenodd" clip-rule="evenodd" d="M97.9494 82.1218C97.9501 82.1211 97.9508 82.1204 96.4063 80.6621C94.8617 79.2038 94.8625 79.203 94.8633 79.2021L94.8651 79.2002L94.8694 79.1956L94.8808 79.1837C94.8896 79.1745 94.9009 79.1628 94.9145 79.1488C94.9418 79.1208 94.9786 79.0834 95.0249 79.0375C95.1173 78.9458 95.2474 78.8201 95.4129 78.6684C95.7433 78.3654 96.2183 77.9554 96.82 77.5029C98.0149 76.6043 99.7553 75.5037 101.894 74.7623C104.044 74.017 106.631 73.6241 109.457 74.202C112.294 74.7822 115.215 76.3093 118.068 79.1557L115.073 82.1685C112.726 79.8273 110.526 78.7606 108.608 78.3682C106.678 77.9734 104.873 78.229 103.282 78.7805C101.68 79.336 100.33 80.1808 99.3687 80.9033C98.8925 81.2614 98.5235 81.5809 98.2793 81.8047C98.1576 81.9164 98.0677 82.0035 98.012 82.0587C97.9842 82.0863 97.965 82.1059 97.9547 82.1165L97.9459 82.1255L97.9467 82.1248L97.9483 82.123L97.9494 82.1218Z" fill="#020202"/>
</g>
<defs>
<clipPath id="clip0">
<rect width="270.796" height="278.087" fill="white"/>
</clipPath>
</defs>
</svg>
